<?xml version="1.0" encoding="UTF-8"?>
<svg version="1.1" xmlns="http://www.w3.org/2000/svg" width="512" height="512">
<path d="M0 0 C1.9223429 1.3296392 1.9223429 1.3296392 3.82027626 3.08602524 C4.51506624 3.72441818 5.20985621 4.36281112 5.92570043 5.0205493 C9.06991878 8.02099596 12.1828537 11.04485443 15.25057983 14.12359619 C15.93387379 14.80533016 16.61716775 15.48706413 17.32116759 16.1894567 C19.58806444 18.4523956 21.85140667 20.71885504 24.11474609 22.98535156 C25.74792149 24.61717067 27.38130927 26.24877724 29.01489258 27.88018799 C33.43410544 32.29485542 37.85016558 36.71266385 42.26551771 41.13119221 C46.88886114 45.75707201 51.5146491 50.38050629 56.14004517 55.0043335 C64.39733232 63.25948786 72.65190081 71.51735594 80.90557487 79.77612254 C88.38990165 87.264924 95.87685681 94.75108932 103.36572266 102.23535156 C112.07166421 110.93594382 120.77592664 119.63821028 129.47771513 128.3429563 C134.08095428 132.94775599 138.68487009 137.55187367 143.29053879 142.15424347 C147.61511579 146.47593883 151.9372526 150.80005969 156.25749207 155.126091 C157.8457669 156.71569144 159.43489953 158.30443531 161.02493668 159.89227295 C163.18937975 162.053997 165.35074059 164.21875574 167.51132202 166.38433838 C168.1459368 167.01672243 168.78055157 167.64910649 169.4343971 168.3006537 C170.01168927 168.88055362 170.58898144 169.46045353 171.18376732 170.05792618 C171.6829399 170.55726111 172.18211247 171.05659604 172.69641149 171.57106233 C175.60174029 174.75575883 176.76700785 177.3974903 176.60762119 181.73761082 C173.88963294 191.85764496 158.14414992 202.99548811 150.86352539 210.26586914 C149.23964121 211.89111033 147.61596942 213.51656374 145.99249268 215.14221191 C141.60899672 219.53024364 137.22237166 223.91513441 132.83501744 228.29930806 C128.23937607 232.89240932 123.64618441 237.48795931 119.05259705 242.08311462 C110.85607524 250.2815679 102.65704316 258.4775055 94.45700788 266.67244446 C87.01964451 274.10532883 79.58492367 281.54084793 72.15209961 288.97827148 C63.50753495 297.628183 54.86129966 306.27641835 46.21258157 314.92217726 C41.6385835 319.49461428 37.06526872 324.06772923 32.49370003 328.64259529 C28.20398995 332.93518388 23.91186047 337.22533825 19.61781311 341.51358795 C18.03907812 343.0909959 16.46120234 344.6692643 14.88422966 346.24843407 C12.7397762 348.39560079 10.59229772 350.53969432 8.44398499 352.68299866 C7.49892242 353.6314073 7.49892242 353.6314073 6.53476769 354.59897572 C1.28744994 359.8224207 1.28744994 359.8224207 -3.625 360.5 C-7.34126837 360.44252055 -8.98249423 359.54335165 -11.69360352 357.0402832 C-12.38809601 356.40216705 -13.0825885 355.7640509 -13.79812622 355.1065979 C-17.6710111 351.40129416 -21.49205509 347.65023283 -25.27734375 343.85546875 C-26.12929825 343.00447098 -26.98125275 342.15347321 -27.85902405 341.27668762 C-29.644305 339.49208294 -31.42834072 337.70623176 -33.21118164 335.91918945 C-35.95019661 333.17477838 -38.69455952 330.43579568 -41.43945312 327.69726562 C-43.17740442 325.95865423 -44.91504586 324.21973305 -46.65234375 322.48046875 C-47.47516342 321.65967331 -48.29798309 320.83887787 -49.14573669 319.99320984 C-49.90064896 319.23514542 -50.65556122 318.47708099 -51.43334961 317.69604492 C-52.09983017 317.02876877 -52.76631073 316.36149261 -53.45298767 315.67399597 C-56.06639823 312.84606845 -56.65128197 310.17528145 -56.59074306 306.31637383 C-55.80220794 303.2244338 -54.35329344 301.75898532 -52.17311096 299.4380188 C-50.94057429 298.1208959 -50.94057429 298.1208959 -49.68313789 296.77716446 C-45.03668505 291.9678836 -40.34209448 287.21152395 -35.60522461 282.49169922 C-34.49039561 281.37715303 -33.37578822 280.26238513 -32.26138306 279.14741516 C-29.26631135 276.15205917 -26.26818942 273.15977386 -23.26946712 270.16807318 C-20.12465827 267.02955974 -16.98272344 263.8881717 -13.84046936 260.74710083 C-7.90351978 254.81324645 -1.9640281 248.88194351 3.97640461 242.95157635 C10.74510325 236.19409539 17.51092733 229.43373941 24.27652371 222.67315269 C38.18117613 208.7789236 52.08939471 194.88826904 66 181 C64.44119197 177.26497244 62.14461783 174.90048798 59.29321289 172.05943298 C58.81105599 171.5762728 58.3288991 171.09311262 57.83213139 170.59531122 C56.21701408 168.97924212 54.59486153 167.37042636 52.97265625 165.76147461 C51.81262286 164.60364266 50.65303704 163.44536214 49.49386597 162.28666687 C46.99766458 159.79339845 44.49833947 157.30331929 41.99655151 154.81565666 C38.0422165 150.88357951 34.09497416 146.94443404 30.14868164 143.00428772 C23.90753699 136.77452474 17.66173747 130.5494527 11.41389942 124.3264032 C0.22139177 113.17822426 -10.96554249 102.02445926 -22.14727497 90.86547285 C-26.0729939 86.94817072 -30.00150389 83.03369525 -33.93226624 79.12145412 C-36.37469174 76.68965919 -38.81509765 74.25584501 -41.25500107 71.82151985 C-42.38851436 70.69148182 -43.52289868 69.56231672 -44.65820694 68.43408203 C-46.20551279 66.89620648 -47.74972487 65.35528925 -49.29321289 63.81358337 C-50.15894424 62.95137145 -51.0246756 62.08915953 -51.91664124 61.20081997 C-54.77307958 58.18333366 -55.9279288 56.47246677 -56.5625 52.3125 C-56.45888557 48.64214916 -55.50369342 46.98933583 -53.03637695 44.31030273 C-52.39882477 43.61524628 -51.76127258 42.92018982 -51.10440063 42.20407104 C-47.4029741 38.32733441 -43.65028598 34.50799793 -39.85546875 30.72265625 C-39.00447098 29.87070175 -38.15347321 29.01874725 -37.27668762 28.14097595 C-35.49208294 26.355695 -33.70623176 24.57165928 -31.91918945 22.78881836 C-29.17477838 20.04980339 -26.43579568 17.30544048 -23.69726562 14.56054688 C-21.95865423 12.82259558 -20.21973305 11.08495414 -18.48046875 9.34765625 C-17.65967331 8.52483658 -16.83887787 7.70201691 -15.99320984 6.85426331 C-15.23514542 6.09935104 -14.47708099 5.34443878 -13.69604492 4.56665039 C-13.02876877 3.90016983 -12.36149261 3.23368927 -11.67399597 2.54701233 C-8.26773109 -0.60086488 -4.4337632 -0.95565778 0 0 Z " fill="#FE3535" transform="translate(56,76)"/>
<path d="M0 0 C0.68666245 -0.0087616 1.37332489 -0.01752319 2.08079529 -0.02655029 C4.34552624 -0.04851726 6.60829689 -0.03400407 8.87304688 -0.01708984 C10.44958877 -0.02045883 12.02612812 -0.02531214 13.60266113 -0.03158569 C16.90479288 -0.03895325 20.2062478 -0.02825626 23.50830078 -0.00488281 C27.73900471 0.02360609 31.96812286 0.00720132 36.19876862 -0.02274513 C39.45367358 -0.04082197 42.70820317 -0.03505858 45.96311951 -0.02210617 C47.52282398 -0.01877317 49.08256264 -0.02285562 50.64222717 -0.03450394 C52.82359933 -0.04722054 55.00241209 -0.02783119 57.18359375 0 C58.42395386 0.00397797 59.66431396 0.00795593 60.94226074 0.01205444 C64.09179688 0.64697266 64.09179688 0.64697266 66.2571826 2.80744553 C68.39089583 6.10990354 68.59277047 7.81677945 68.59516144 11.71432495 C68.60559243 12.94038515 68.61602342 14.16644535 68.6267705 15.42965889 C68.6181226 16.78709268 68.60909598 18.14452409 68.59973145 19.50195312 C68.60434035 20.94639146 68.61069319 22.39082512 68.61864042 23.83524895 C68.63535864 27.80497744 68.62707624 31.77432194 68.61469555 35.74405193 C68.60565751 40.02497158 68.61960858 44.3058245 68.63061523 48.58673096 C68.64841839 56.97321942 68.64455249 65.35956483 68.63296467 73.74605894 C68.62393768 80.5608408 68.62270316 87.37558253 68.62705994 94.19036865 C68.62767287 95.15962402 68.6282858 96.12887939 68.62891731 97.12750614 C68.63019618 99.09641982 68.63149304 101.0653335 68.63280767 103.03424716 C68.64421873 121.50451759 68.63109152 139.97470866 68.60960621 158.44496608 C68.59173475 174.29945073 68.59483871 190.15381824 68.61328125 206.00830078 C68.63467867 224.41166933 68.64312005 242.8149683 68.6308322 261.21834755 C68.62955797 263.18009058 68.62830049 265.14183361 68.62705994 267.10357666 C68.62644283 268.06883675 68.62582573 269.03409685 68.62518993 270.02860725 C68.62173364 276.83661369 68.62757137 283.64457606 68.63697815 290.45257568 C68.64818698 298.74725963 68.64518162 307.04179213 68.62385517 315.33645868 C68.61332968 319.57000472 68.60924831 323.80329808 68.62245178 328.03684235 C68.6343507 331.91063368 68.62785496 335.7839376 68.60654157 339.65768456 C68.60206483 341.06070544 68.60436584 342.46376729 68.61404473 343.86676192 C68.62617632 345.77101983 68.61136209 347.67539273 68.59516144 349.57962036 C68.59451203 350.63822832 68.59386262 351.69683628 68.59319353 352.78752327 C67.96043046 356.39615118 66.66529182 358.07931649 64.09179688 360.64697266 C60.94226074 361.28189087 60.94226074 361.28189087 57.18359375 361.29394531 C56.15360008 361.30708771 56.15360008 361.30708771 55.10279846 361.32049561 C52.83806751 361.34246257 50.57529686 361.32794938 48.31054688 361.31103516 C46.73400498 361.31440414 45.15746563 361.31925745 43.58093262 361.32553101 C40.27880087 361.33289856 36.97734595 361.32220157 33.67529297 361.29882812 C29.44458904 361.27033922 25.21547089 361.28674399 20.98482513 361.31669044 C17.72992017 361.33476729 14.47539058 361.32900389 11.22047424 361.31605148 C9.66076977 361.31271848 8.10103111 361.31680094 6.54136658 361.32844925 C4.35999442 361.34116586 2.18118166 361.3217765 0 361.29394531 C-1.24036011 361.28996735 -2.48072021 361.28598938 -3.75866699 361.28189087 C-6.90820312 360.64697266 -6.90820312 360.64697266 -9.07358885 358.48649979 C-11.20730208 355.18404177 -11.40917672 353.47716586 -11.41156769 349.57962036 C-11.42199868 348.35356016 -11.43242967 347.12749996 -11.44317675 345.86428642 C-11.43452885 344.50685264 -11.42550223 343.14942122 -11.4161377 341.79199219 C-11.4207466 340.34755385 -11.42709944 338.9031202 -11.43504667 337.45869637 C-11.45176489 333.48896787 -11.44348249 329.51962337 -11.4311018 325.54989338 C-11.42206376 321.26897373 -11.43601483 316.98812081 -11.44702148 312.70721436 C-11.46482464 304.32072589 -11.46095874 295.93438048 -11.44937092 287.54788637 C-11.44034393 280.73310451 -11.43910941 273.91836278 -11.44346619 267.10357666 C-11.44407912 266.13432129 -11.44469205 265.16506592 -11.44532356 264.16643918 C-11.44660243 262.19752549 -11.44789929 260.22861182 -11.44921392 258.25969815 C-11.46062498 239.78942772 -11.44749777 221.31923665 -11.42601246 202.84897923 C-11.408141 186.99449458 -11.41124496 171.14012707 -11.4296875 155.28564453 C-11.45108492 136.88227598 -11.4595263 118.47897702 -11.44723845 100.07559776 C-11.44596422 98.11385474 -11.44470674 96.1521117 -11.44346619 94.19036865 C-11.44284908 93.22510856 -11.44223198 92.25984846 -11.44159618 91.26533806 C-11.43813989 84.45733162 -11.44397762 77.64936925 -11.4533844 70.84136963 C-11.46459323 62.54668568 -11.46158787 54.25215318 -11.44026142 45.95748663 C-11.42973593 41.7239406 -11.42565456 37.49064723 -11.43885803 33.25710297 C-11.45075695 29.38331163 -11.44426121 25.51000772 -11.42294782 21.63626075 C-11.41847108 20.23323987 -11.42077209 18.83017802 -11.43045098 17.42718339 C-11.44258257 15.52292548 -11.42776834 13.61855259 -11.41156769 11.71432495 C-11.41091828 10.65571699 -11.41026887 9.59710903 -11.40959978 8.50642204 C-10.2042519 1.63236091 -6.48860289 0.02080964 0 0 Z " fill="#F00000" transform="translate(291.908203125,75.35302734375)"/>
<path d="M0 0 C0.67661682 -0.0065712 1.35323364 -0.0131424 2.050354 -0.01991272 C4.29284777 -0.03964801 6.5352746 -0.05130803 8.77783203 -0.0612793 C9.92601095 -0.06739259 9.92601095 -0.06739259 11.09738541 -0.07362938 C15.14792868 -0.09448997 19.19843806 -0.10879235 23.24902344 -0.11816406 C27.4346362 -0.1292355 31.61971834 -0.16364325 35.80514336 -0.20333576 C39.02219641 -0.22946657 42.23912227 -0.23785265 45.45627213 -0.24144554 C46.99926466 -0.24631982 48.54225121 -0.25795781 50.08514023 -0.27648354 C52.24468957 -0.30080408 54.40285596 -0.2999241 56.5625 -0.29296875 C57.79112762 -0.29883499 59.01975525 -0.30470123 60.28561401 -0.31074524 C64.11414222 0.28680217 65.04780641 1.16171239 67.41064453 4.17700195 C67.91204119 6.92622757 67.91204119 6.92622757 67.91400909 10.15533447 C67.92444008 11.38698711 67.93487107 12.61863976 67.94561815 13.8876152 C67.93696968 15.25654074 67.92794305 16.62546393 67.9185791 17.99438477 C67.9231866 19.44692231 67.9295385 20.8994552 67.93748808 22.3519783 C67.95422561 26.34869881 67.94591517 30.34503854 67.93354321 34.34176064 C67.92451302 38.64994546 67.93845231 42.95806365 67.94946289 47.26623535 C67.96727449 55.70800465 67.9633964 64.1496319 67.95181233 72.59140682 C67.94278864 79.45055751 67.94154938 86.30966832 67.94590759 93.16882324 C67.94652052 94.14405355 67.94713346 95.11928385 67.94776496 96.12406659 C67.94904383 98.10506154 67.95034068 100.08605648 67.95165533 102.06705141 C67.96306886 120.6546026 67.9499353 139.24207495 67.92845386 157.82961321 C67.91058218 173.78789687 67.91368607 189.74606415 67.93212891 205.7043457 C67.95352197 224.22415967 67.96197015 242.7439045 67.94967985 261.2637291 C67.94840562 263.23754627 67.94714814 265.21136346 67.94590759 267.18518066 C67.94529049 268.15640468 67.94467339 269.12762869 67.94403759 270.12828374 C67.94057999 276.98133198 67.94642184 283.83433646 67.95582581 290.68737793 C67.96702981 299.03591313 67.9640395 307.38429784 67.94270283 315.73281574 C67.9321708 319.99458412 67.92810702 324.25610137 67.94129944 328.51786804 C67.95318493 332.41631834 67.946725 336.31428381 67.92538923 340.21268988 C67.92090675 341.62581701 67.92322622 343.03898479 67.93289238 344.45208597 C67.94499395 346.36758591 67.9302314 348.28319996 67.91400909 350.19866943 C67.91335968 351.26427471 67.91271028 352.32987999 67.91204119 353.42777634 C67.28232492 356.88059573 66.16683764 358.06418794 63.41064453 360.17700195 C60.29907227 360.68493652 60.29907227 360.68493652 56.59423828 360.69458008 C55.57887497 360.70509399 55.57887497 360.70509399 54.54299927 360.71582031 C52.31096066 360.73339019 50.08019547 360.72178268 47.84814453 360.70825195 C46.29402422 360.7109472 44.73990556 360.71482989 43.18579102 360.71984863 C39.93082604 360.72574226 36.67630055 360.71718561 33.42138672 360.69848633 C29.25140909 360.67569623 25.08246122 360.68882013 20.91252136 360.71277618 C17.7039821 360.7272382 14.49568654 360.72262646 11.28713989 360.71226501 C9.74976479 360.70959881 8.21236748 360.71286379 6.67501831 360.72218323 C4.52510068 360.73235625 2.37684478 360.71684083 0.22705078 360.69458008 C-0.99554443 360.69139771 -2.21813965 360.68821533 -3.4777832 360.68493652 C-7.20776429 360.0760526 -8.36703554 359.18855545 -10.58935547 356.17700195 C-11.69208405 352.88534868 -11.71664193 349.78616014 -11.72078323 346.33198833 C-11.72462438 345.13005295 -11.72846552 343.92811757 -11.73242307 342.68975991 C-11.73164283 341.3543457 -11.73076405 340.01893154 -11.72979736 338.68351746 C-11.73238114 337.26612194 -11.73539433 335.84872714 -11.73880076 334.43133336 C-11.74687248 330.53174001 -11.74866043 326.63216505 -11.74939823 322.73256433 C-11.75124847 318.52863914 -11.75879561 314.3247235 -11.76553345 310.12080383 C-11.77911809 300.92665035 -11.78514157 291.73250123 -11.78954411 282.53833938 C-11.79230607 276.7987094 -11.79654332 271.05908112 -11.80104828 265.31945229 C-11.81324067 249.43132603 -11.82354033 233.54320113 -11.82692337 217.6550703 C-11.82714294 216.63811345 -11.8273625 215.6211566 -11.82758872 214.57338287 C-11.827807 213.55398138 -11.82802528 212.53457989 -11.82825017 211.48428744 C-11.82869364 209.41856142 -11.8291402 207.3528354 -11.82958984 205.28710938 C-11.82981127 204.26243607 -11.8300327 203.23776277 -11.83026084 202.18203876 C-11.83420981 185.57449529 -11.85166698 168.96699567 -11.87494937 152.35946914 C-11.89865437 135.31306989 -11.91112482 118.26669266 -11.91229129 101.22027665 C-11.91320848 91.6475764 -11.91897198 82.07493329 -11.9371109 72.50224876 C-11.95250033 64.35182837 -11.95763917 56.20148279 -11.9493728 48.05105063 C-11.94546231 43.89222702 -11.94641533 39.73355412 -11.96043015 35.57474899 C-11.97314501 31.76690049 -11.97199294 27.95931633 -11.95983943 24.15146831 C-11.95694978 22.1227931 -11.96883642 20.09411343 -11.98126149 18.06547421 C-11.946719 11.72418926 -11.87277616 6.70121264 -8.58935547 1.17700195 C-5.71204743 -0.26165206 -3.21552832 0.02579738 0 0 Z " fill="#FF3636" transform="translate(444.58935546875,75.822998046875)"/>
<path d="M0 0 C1.9223429 1.3296392 1.9223429 1.3296392 3.82027626 3.08602524 C4.51506624 3.72441818 5.20985621 4.36281112 5.92570043 5.0205493 C9.06991878 8.02099596 12.1828537 11.04485443 15.25057983 14.12359619 C15.93387379 14.80533016 16.61716775 15.48706413 17.32116759 16.1894567 C19.58806444 18.4523956 21.85140667 20.71885504 24.11474609 22.98535156 C25.74792149 24.61717067 27.38130927 26.24877724 29.01489258 27.88018799 C33.43410544 32.29485542 37.85016558 36.71266385 42.26551771 41.13119221 C46.88886114 45.75707201 51.5146491 50.38050629 56.14004517 55.0043335 C64.39733232 63.25948786 72.65190081 71.51735594 80.90557487 79.77612254 C88.38990165 87.264924 95.87685681 94.75108932 103.36572266 102.23535156 C112.07166421 110.93594382 120.77592664 119.63821028 129.47771513 128.3429563 C134.08095428 132.94775599 138.68487009 137.55187367 143.29053879 142.15424347 C147.61511579 146.47593883 151.9372526 150.80005969 156.25749207 155.126091 C157.8457669 156.71569144 159.43489953 158.30443531 161.02493668 159.89227295 C163.18937975 162.053997 165.35074059 164.21875574 167.51132202 166.38433838 C168.1459368 167.01672243 168.78055157 167.64910649 169.4343971 168.3006537 C170.01168927 168.88055362 170.58898144 169.46045353 171.18376732 170.05792618 C171.6829399 170.55726111 172.18211247 171.05659604 172.69641149 171.57106233 C175.60174029 174.75575883 176.76700785 177.3974903 176.60762119 181.73761082 C173.88963294 191.85764496 158.14414992 202.99548811 150.86352539 210.26586914 C149.23964121 211.89111033 147.61596942 213.51656374 145.99249268 215.14221191 C141.60899672 219.53024364 137.22237166 223.91513441 132.83501744 228.29930806 C128.23937607 232.89240932 123.64618441 237.48795931 119.05259705 242.08311462 C110.85607524 250.2815679 102.65704316 258.4775055 94.45700788 266.67244446 C87.01964451 274.10532883 79.58492367 281.54084793 72.15209961 288.97827148 C63.50753495 297.628183 54.86129966 306.27641835 46.21258157 314.92217726 C41.6385835 319.49461428 37.06526872 324.06772923 32.49370003 328.64259529 C28.20398995 332.93518388 23.91186047 337.22533825 19.61781311 341.51358795 C18.03907812 343.0909959 16.46120234 344.6692643 14.88422966 346.24843407 C12.7397762 348.39560079 10.59229772 350.53969432 8.44398499 352.68299866 C7.49892242 353.6314073 7.49892242 353.6314073 6.53476769 354.59897572 C1.28744994 359.8224207 1.28744994 359.8224207 -3.625 360.5 C-7.34126837 360.44252055 -8.98249423 359.54335165 -11.69360352 357.0402832 C-12.38809601 356.40216705 -13.0825885 355.7640509 -13.79812622 355.1065979 C-17.6710111 351.40129416 -21.49205509 347.65023283 -25.27734375 343.85546875 C-26.12929825 343.00447098 -26.98125275 342.15347321 -27.85902405 341.27668762 C-29.644305 339.49208294 -31.42834072 337.70623176 -33.21118164 335.91918945 C-35.95019661 333.17477838 -38.69455952 330.43579568 -41.43945312 327.69726562 C-43.17740442 325.95865423 -44.91504586 324.21973305 -46.65234375 322.48046875 C-47.47516342 321.65967331 -48.29798309 320.83887787 -49.14573669 319.99320984 C-49.90064896 319.23514542 -50.65556122 318.47708099 -51.43334961 317.69604492 C-52.09983017 317.02876877 -52.76631073 316.36149261 -53.45298767 315.67399597 C-56.06639823 312.84606845 -56.65128197 310.17528145 -56.59074306 306.31637383 C-55.80220794 303.2244338 -54.35329344 301.75898532 -52.17311096 299.4380188 C-50.94057429 298.1208959 -50.94057429 298.1208959 -49.68313789 296.77716446 C-45.03668505 291.9678836 -40.34209448 287.21152395 -35.60522461 282.49169922 C-34.49039561 281.37715303 -33.37578822 280.26238513 -32.26138306 279.14741516 C-29.26631135 276.15205917 -26.26818942 273.15977386 -23.26946712 270.16807318 C-20.12465827 267.02955974 -16.98272344 263.8881717 -13.84046936 260.74710083 C-7.90351978 254.81324645 -1.9640281 248.88194351 3.97640461 242.95157635 C10.74510325 236.19409539 17.51092733 229.43373941 24.27652371 222.67315269 C38.18117613 208.7789236 52.08939471 194.88826904 66 181 C64.44119197 177.26497244 62.14461783 174.90048798 59.29321289 172.05943298 C58.81105599 171.5762728 58.3288991 171.09311262 57.83213139 170.59531122 C56.21701408 168.97924212 54.59486153 167.37042636 52.97265625 165.76147461 C51.81262286 164.60364266 50.65303704 163.44536214 49.49386597 162.28666687 C46.99766458 159.79339845 44.49833947 157.30331929 41.99655151 154.81565666 C38.0422165 150.88357951 34.09497416 146.94443404 30.14868164 143.00428772 C23.90753699 136.77452474 17.66173747 130.5494527 11.41389942 124.3264032 C0.22139177 113.17822426 -10.96554249 102.02445926 -22.14727497 90.86547285 C-26.0729939 86.94817072 -30.00150389 83.03369525 -33.93226624 79.12145412 C-36.37469174 76.68965919 -38.81509765 74.25584501 -41.25500107 71.82151985 C-42.38851436 70.69148182 -43.52289868 69.56231672 -44.65820694 68.43408203 C-46.20551279 66.89620648 -47.74972487 65.35528925 -49.29321289 63.81358337 C-50.15894424 62.95137145 -51.0246756 62.08915953 -51.91664124 61.20081997 C-54.77307958 58.18333366 -55.9279288 56.47246677 -56.5625 52.3125 C-56.45888557 48.64214916 -55.50369342 46.98933583 -53.03637695 44.31030273 C-52.39882477 43.61524628 -51.76127258 42.92018982 -51.10440063 42.20407104 C-47.4029741 38.32733441 -43.65028598 34.50799793 -39.85546875 30.72265625 C-39.00447098 29.87070175 -38.15347321 29.01874725 -37.27668762 28.14097595 C-35.49208294 26.355695 -33.70623176 24.57165928 -31.91918945 22.78881836 C-29.17477838 20.04980339 -26.43579568 17.30544048 -23.69726562 14.56054688 C-21.95865423 12.82259558 -20.21973305 11.08495414 -18.48046875 9.34765625 C-17.65967331 8.52483658 -16.83887787 7.70201691 -15.99320984 6.85426331 C-15.23514542 6.09935104 -14.47708099 5.34443878 -13.69604492 4.56665039 C-13.02876877 3.90016983 -12.36149261 3.23368927 -11.67399597 2.54701233 C-8.26773109 -0.60086488 -4.4337632 -0.95565778 0 0 Z M-6.41738892 21.17687988 C-6.96365936 21.72759155 -7.50992981 22.27830322 -8.07275391 22.84570312 C-8.69324615 23.46634644 -9.3137384 24.08698975 -9.95303345 24.72644043 C-10.62079803 25.40452759 -11.28856262 26.08261475 -11.9765625 26.78125 C-12.66181 27.46932739 -13.3470575 28.15740479 -14.05307007 28.86633301 C-16.2484328 31.07292322 -18.43675416 33.28635402 -20.625 35.5 C-22.10891759 36.99394406 -23.59328679 38.48743969 -25.078125 39.98046875 C-28.7240133 43.64845146 -32.36413852 47.32207952 -36 51 C-34.43243278 54.77215097 -32.08737618 57.15665588 -29.21055603 60.02322388 C-28.71952646 60.51525673 -28.2284969 61.00728958 -27.72258765 61.51423252 C-26.07749813 63.16027397 -24.42537076 64.79906355 -22.77319336 66.43798828 C-21.5918333 67.61714697 -20.41092075 68.79675416 -19.23042297 69.97677612 C-16.68838378 72.51588231 -14.14322029 75.05179984 -11.59559441 77.58530045 C-7.57012664 81.58851654 -3.55174574 85.59879558 0.46568298 89.6100769 C6.81780806 95.95082075 13.17458903 102.28687326 19.53340763 108.62090385 C30.92882669 119.97198196 42.31865117 131.32866724 53.70329756 142.69054973 C57.70121936 146.68004645 61.70193246 150.66671707 65.7048856 154.65116525 C68.18986577 157.12552919 70.67283808 159.60190065 73.15530586 162.07878494 C74.31020517 163.23020346 75.46597571 164.38074885 76.62266159 165.53037262 C78.196577 167.09488652 79.76742604 168.66241557 81.33753967 170.23074341 C82.21894151 171.10862581 83.10034334 171.98650822 84.00845432 172.89099312 C86.26094675 175.27633737 86.88928405 176.41874125 87.5 179.625 C86.1704295 188.59960089 74.82701616 196.30831699 68.55688477 202.55664062 C67.41279461 203.7004482 66.26892561 204.84447702 65.1252594 205.9887085 C62.04122973 209.07302338 58.95414129 212.15425979 55.86646771 215.23492622 C52.63223484 218.46287953 49.40086079 221.69369218 46.16917419 224.92419434 C40.05861755 231.03165119 33.94551777 237.13655589 27.83148569 243.24053335 C20.8669556 250.19386021 13.90528743 257.15004943 6.94385064 264.10647297 C-7.36759837 278.40748821 -21.682613 292.70492972 -36 307 C-34.63441112 309.83374242 -33.35003769 311.89648438 -31.11083984 314.11621094 C-30.5303891 314.69651062 -29.94993835 315.2768103 -29.35189819 315.87469482 C-28.72788116 316.48838928 -28.10386414 317.10208374 -27.4609375 317.734375 C-26.49965439 318.69141327 -26.49965439 318.69141327 -25.51895142 319.66778564 C-23.47562179 321.69994069 -21.42544018 323.72502218 -19.375 325.75 C-17.9865214 327.1284453 -16.5984951 328.50734636 -15.2109375 329.88671875 C-11.81251303 333.26311894 -8.40792746 336.63319288 -5 340 C-0.66089603 338.33639169 2.24027378 335.03135603 5.44134521 331.79916382 C6.08588063 331.15633725 6.73041605 330.51351068 7.39448285 329.85120451 C9.55650907 327.69247682 11.71130189 325.52667045 13.86621094 323.36083984 C15.41314977 321.81333698 16.96052891 320.26627416 18.50831604 318.71961975 C22.71284885 314.51566176 26.91117822 310.30555716 31.10844326 306.09434462 C35.49444647 301.69585554 39.88609808 297.30301363 44.27716064 292.90957642 C51.64779629 285.53342691 59.01492902 278.15379399 66.37939453 270.77148438 C73.96461512 263.16790394 81.55193479 255.56642827 89.14208984 247.96777344 C89.60999726 247.49934058 90.07790467 247.03090772 90.55999109 246.54827993 C92.90737331 244.19828762 95.25479915 241.84833888 97.60224104 239.49840617 C117.0744844 220.0052466 136.53958012 200.50496269 156 181 C154.3357982 176.6653014 151.03903018 173.76121876 147.81262207 170.55865479 C147.17120663 169.91411937 146.52979119 169.26958395 145.86893892 168.60551715 C143.71489484 166.44348521 141.55375964 164.28868466 139.39257812 162.13378906 C137.84833408 160.58683557 136.30451597 159.03945679 134.76109314 157.49168396 C130.56548142 153.28694209 126.36355283 149.08856613 122.16020775 144.89155674 C117.7685692 140.5049731 113.38180263 136.11352176 108.9942627 131.72283936 C101.15471323 123.87941622 93.31012639 116.04105221 85.46355706 108.2046524 C78.34380615 101.09384326 71.2293242 93.97779777 64.11865234 86.85791016 C55.86465267 78.59321797 47.60731657 70.33188124 39.34501028 62.07549262 C34.969958 57.7035654 30.59628492 53.33028147 26.22608948 48.95349884 C22.12010949 44.84176261 18.00930835 40.73490946 13.89465523 36.6318531 C12.38116675 35.12102012 10.86939794 33.6084623 9.35943413 32.09410667 C7.30665051 30.03590134 5.24787724 27.98388725 3.18737793 25.93341064 C2.58368897 25.32526024 1.98000001 24.71710984 1.35801744 24.09053063 C-2.10175421 19.95336244 -2.10175421 19.95336244 -6.41738892 21.17687988 Z " fill="#010000" transform="translate(56,76)"/>
<path d="M0 0 C0.68666245 -0.0087616 1.37332489 -0.01752319 2.08079529 -0.02655029 C4.34552624 -0.04851726 6.60829689 -0.03400407 8.87304688 -0.01708984 C10.44958877 -0.02045883 12.02612812 -0.02531214 13.60266113 -0.03158569 C16.90479288 -0.03895325 20.2062478 -0.02825626 23.50830078 -0.00488281 C27.73900471 0.02360609 31.96812286 0.00720132 36.19876862 -0.02274513 C39.45367358 -0.04082197 42.70820317 -0.03505858 45.96311951 -0.02210617 C47.52282398 -0.01877317 49.08256264 -0.02285562 50.64222717 -0.03450394 C52.82359933 -0.04722054 55.00241209 -0.02783119 57.18359375 0 C58.42395386 0.00397797 59.66431396 0.00795593 60.94226074 0.01205444 C64.09179688 0.64697266 64.09179688 0.64697266 66.2571826 2.80744553 C68.39089583 6.10990354 68.59277047 7.81677945 68.59516144 11.71432495 C68.60559243 12.94038515 68.61602342 14.16644535 68.6267705 15.42965889 C68.6181226 16.78709268 68.60909598 18.14452409 68.59973145 19.50195312 C68.60434035 20.94639146 68.61069319 22.39082512 68.61864042 23.83524895 C68.63535864 27.80497744 68.62707624 31.77432194 68.61469555 35.74405193 C68.60565751 40.02497158 68.61960858 44.3058245 68.63061523 48.58673096 C68.64841839 56.97321942 68.64455249 65.35956483 68.63296467 73.74605894 C68.62393768 80.5608408 68.62270316 87.37558253 68.62705994 94.19036865 C68.62767287 95.15962402 68.6282858 96.12887939 68.62891731 97.12750614 C68.63019618 99.09641982 68.63149304 101.0653335 68.63280767 103.03424716 C68.64421873 121.50451759 68.63109152 139.97470866 68.60960621 158.44496608 C68.59173475 174.29945073 68.59483871 190.15381824 68.61328125 206.00830078 C68.63467867 224.41166933 68.64312005 242.8149683 68.6308322 261.21834755 C68.62955797 263.18009058 68.62830049 265.14183361 68.62705994 267.10357666 C68.62644283 268.06883675 68.62582573 269.03409685 68.62518993 270.02860725 C68.62173364 276.83661369 68.62757137 283.64457606 68.63697815 290.45257568 C68.64818698 298.74725963 68.64518162 307.04179213 68.62385517 315.33645868 C68.61332968 319.57000472 68.60924831 323.80329808 68.62245178 328.03684235 C68.6343507 331.91063368 68.62785496 335.7839376 68.60654157 339.65768456 C68.60206483 341.06070544 68.60436584 342.46376729 68.61404473 343.86676192 C68.62617632 345.77101983 68.61136209 347.67539273 68.59516144 349.57962036 C68.59451203 350.63822832 68.59386262 351.69683628 68.59319353 352.78752327 C67.96043046 356.39615118 66.66529182 358.07931649 64.09179688 360.64697266 C60.94226074 361.28189087 60.94226074 361.28189087 57.18359375 361.29394531 C56.15360008 361.30708771 56.15360008 361.30708771 55.10279846 361.32049561 C52.83806751 361.34246257 50.57529686 361.32794938 48.31054688 361.31103516 C46.73400498 361.31440414 45.15746563 361.31925745 43.58093262 361.32553101 C40.27880087 361.33289856 36.97734595 361.32220157 33.67529297 361.29882812 C29.44458904 361.27033922 25.21547089 361.28674399 20.98482513 361.31669044 C17.72992017 361.33476729 14.47539058 361.32900389 11.22047424 361.31605148 C9.66076977 361.31271848 8.10103111 361.31680094 6.54136658 361.32844925 C4.35999442 361.34116586 2.18118166 361.3217765 0 361.29394531 C-1.24036011 361.28996735 -2.48072021 361.28598938 -3.75866699 361.28189087 C-6.90820312 360.64697266 -6.90820312 360.64697266 -9.07358885 358.48649979 C-11.20730208 355.18404177 -11.40917672 353.47716586 -11.41156769 349.57962036 C-11.42199868 348.35356016 -11.43242967 347.12749996 -11.44317675 345.86428642 C-11.43452885 344.50685264 -11.42550223 343.14942122 -11.4161377 341.79199219 C-11.4207466 340.34755385 -11.42709944 338.9031202 -11.43504667 337.45869637 C-11.45176489 333.48896787 -11.44348249 329.51962337 -11.4311018 325.54989338 C-11.42206376 321.26897373 -11.43601483 316.98812081 -11.44702148 312.70721436 C-11.46482464 304.32072589 -11.46095874 295.93438048 -11.44937092 287.54788637 C-11.44034393 280.73310451 -11.43910941 273.91836278 -11.44346619 267.10357666 C-11.44407912 266.13432129 -11.44469205 265.16506592 -11.44532356 264.16643918 C-11.44660243 262.19752549 -11.44789929 260.22861182 -11.44921392 258.25969815 C-11.46062498 239.78942772 -11.44749777 221.31923665 -11.42601246 202.84897923 C-11.408141 186.99449458 -11.41124496 171.14012707 -11.4296875 155.28564453 C-11.45108492 136.88227598 -11.4595263 118.47897702 -11.44723845 100.07559776 C-11.44596422 98.11385474 -11.44470674 96.1521117 -11.44346619 94.19036865 C-11.44284908 93.22510856 -11.44223198 92.25984846 -11.44159618 91.26533806 C-11.43813989 84.45733162 -11.44397762 77.64936925 -11.4533844 70.84136963 C-11.46459323 62.54668568 -11.46158787 54.25215318 -11.44026142 45.95748663 C-11.42973593 41.7239406 -11.42565456 37.49064723 -11.43885803 33.25710297 C-11.45075695 29.38331163 -11.44426121 25.51000772 -11.42294782 21.63626075 C-11.41847108 20.23323987 -11.42077209 18.83017802 -11.43045098 17.42718339 C-11.44258257 15.52292548 -11.42776834 13.61855259 -11.41156769 11.71432495 C-11.41091828 10.65571699 -11.41026887 9.59710903 -11.40959978 8.50642204 C-10.2042519 1.63236091 -6.48860289 0.02080964 0 0 Z M6.09179688 16.64697266 C6.09179688 124.88697266 6.09179688 233.12697266 6.09179688 344.64697266 C21.27179688 344.64697266 36.45179688 344.64697266 52.09179688 344.64697266 C52.09179688 236.40697266 52.09179688 128.16697266 52.09179688 16.64697266 C36.91179687 16.64697266 21.73179687 16.64697266 6.09179688 16.64697266 Z " fill="#020000" transform="translate(291.908203125,75.35302734375)"/>
<path d="M0 0 C0.67661682 -0.0065712 1.35323364 -0.0131424 2.050354 -0.01991272 C4.29284777 -0.03964801 6.5352746 -0.05130803 8.77783203 -0.0612793 C9.92601095 -0.06739259 9.92601095 -0.06739259 11.09738541 -0.07362938 C15.14792868 -0.09448997 19.19843806 -0.10879235 23.24902344 -0.11816406 C27.4346362 -0.1292355 31.61971834 -0.16364325 35.80514336 -0.20333576 C39.02219641 -0.22946657 42.23912227 -0.23785265 45.45627213 -0.24144554 C46.99926466 -0.24631982 48.54225121 -0.25795781 50.08514023 -0.27648354 C52.24468957 -0.30080408 54.40285596 -0.2999241 56.5625 -0.29296875 C57.79112762 -0.29883499 59.01975525 -0.30470123 60.28561401 -0.31074524 C64.11414222 0.28680217 65.04780641 1.16171239 67.41064453 4.17700195 C67.91204119 6.92622757 67.91204119 6.92622757 67.91400909 10.15533447 C67.92444008 11.38698711 67.93487107 12.61863976 67.94561815 13.8876152 C67.93696968 15.25654074 67.92794305 16.62546393 67.9185791 17.99438477 C67.9231866 19.44692231 67.9295385 20.8994552 67.93748808 22.3519783 C67.95422561 26.34869881 67.94591517 30.34503854 67.93354321 34.34176064 C67.92451302 38.64994546 67.93845231 42.95806365 67.94946289 47.26623535 C67.96727449 55.70800465 67.9633964 64.1496319 67.95181233 72.59140682 C67.94278864 79.45055751 67.94154938 86.30966832 67.94590759 93.16882324 C67.94652052 94.14405355 67.94713346 95.11928385 67.94776496 96.12406659 C67.94904383 98.10506154 67.95034068 100.08605648 67.95165533 102.06705141 C67.96306886 120.6546026 67.9499353 139.24207495 67.92845386 157.82961321 C67.91058218 173.78789687 67.91368607 189.74606415 67.93212891 205.7043457 C67.95352197 224.22415967 67.96197015 242.7439045 67.94967985 261.2637291 C67.94840562 263.23754627 67.94714814 265.21136346 67.94590759 267.18518066 C67.94529049 268.15640468 67.94467339 269.12762869 67.94403759 270.12828374 C67.94057999 276.98133198 67.94642184 283.83433646 67.95582581 290.68737793 C67.96702981 299.03591313 67.9640395 307.38429784 67.94270283 315.73281574 C67.9321708 319.99458412 67.92810702 324.25610137 67.94129944 328.51786804 C67.95318493 332.41631834 67.946725 336.31428381 67.92538923 340.21268988 C67.92090675 341.62581701 67.92322622 343.03898479 67.93289238 344.45208597 C67.94499395 346.36758591 67.9302314 348.28319996 67.91400909 350.19866943 C67.91335968 351.26427471 67.91271028 352.32987999 67.91204119 353.42777634 C67.28232492 356.88059573 66.16683764 358.06418794 63.41064453 360.17700195 C60.29907227 360.68493652 60.29907227 360.68493652 56.59423828 360.69458008 C55.57887497 360.70509399 55.57887497 360.70509399 54.54299927 360.71582031 C52.31096066 360.73339019 50.08019547 360.72178268 47.84814453 360.70825195 C46.29402422 360.7109472 44.73990556 360.71482989 43.18579102 360.71984863 C39.93082604 360.72574226 36.67630055 360.71718561 33.42138672 360.69848633 C29.25140909 360.67569623 25.08246122 360.68882013 20.91252136 360.71277618 C17.7039821 360.7272382 14.49568654 360.72262646 11.28713989 360.71226501 C9.74976479 360.70959881 8.21236748 360.71286379 6.67501831 360.72218323 C4.52510068 360.73235625 2.37684478 360.71684083 0.22705078 360.69458008 C-0.99554443 360.69139771 -2.21813965 360.68821533 -3.4777832 360.68493652 C-7.20776429 360.0760526 -8.36703554 359.18855545 -10.58935547 356.17700195 C-11.69208405 352.88534868 -11.71664193 349.78616014 -11.72078323 346.33198833 C-11.72462438 345.13005295 -11.72846552 343.92811757 -11.73242307 342.68975991 C-11.73164283 341.3543457 -11.73076405 340.01893154 -11.72979736 338.68351746 C-11.73238114 337.26612194 -11.73539433 335.84872714 -11.73880076 334.43133336 C-11.74687248 330.53174001 -11.74866043 326.63216505 -11.74939823 322.73256433 C-11.75124847 318.52863914 -11.75879561 314.3247235 -11.76553345 310.12080383 C-11.77911809 300.92665035 -11.78514157 291.73250123 -11.78954411 282.53833938 C-11.79230607 276.7987094 -11.79654332 271.05908112 -11.80104828 265.31945229 C-11.81324067 249.43132603 -11.82354033 233.54320113 -11.82692337 217.6550703 C-11.82714294 216.63811345 -11.8273625 215.6211566 -11.82758872 214.57338287 C-11.827807 213.55398138 -11.82802528 212.53457989 -11.82825017 211.48428744 C-11.82869364 209.41856142 -11.8291402 207.3528354 -11.82958984 205.28710938 C-11.82981127 204.26243607 -11.8300327 203.23776277 -11.83026084 202.18203876 C-11.83420981 185.57449529 -11.85166698 168.96699567 -11.87494937 152.35946914 C-11.89865437 135.31306989 -11.91112482 118.26669266 -11.91229129 101.22027665 C-11.91320848 91.6475764 -11.91897198 82.07493329 -11.9371109 72.50224876 C-11.95250033 64.35182837 -11.95763917 56.20148279 -11.9493728 48.05105063 C-11.94546231 43.89222702 -11.94641533 39.73355412 -11.96043015 35.57474899 C-11.97314501 31.76690049 -11.97199294 27.95931633 -11.95983943 24.15146831 C-11.95694978 22.1227931 -11.96883642 20.09411343 -11.98126149 18.06547421 C-11.946719 11.72418926 -11.87277616 6.70121264 -8.58935547 1.17700195 C-5.71204743 -0.26165206 -3.21552832 0.02579738 0 0 Z M5.41064453 16.17700195 C5.41064453 124.41700195 5.41064453 232.65700195 5.41064453 344.17700195 C20.59064453 344.17700195 35.77064453 344.17700195 51.41064453 344.17700195 C51.41064453 235.93700195 51.41064453 127.69700195 51.41064453 16.17700195 C36.23064453 16.17700195 21.05064453 16.17700195 5.41064453 16.17700195 Z " fill="#000000" transform="translate(444.58935546875,75.822998046875)"/>
<path d="M0 0 C4.33690137 1.66390567 7.23952701 4.96480555 10.44134521 8.19410706 C11.08588063 8.83622806 11.73041605 9.47834906 12.39448285 10.13992828 C14.55651193 12.29631418 16.71130862 14.45978496 18.86621094 16.62329102 C20.4131571 18.16916448 21.96053606 19.71460494 23.50831604 21.25964355 C27.71295338 25.45942851 31.91130606 29.66544513 36.10844326 33.87272382 C40.49473665 38.26778784 44.88628818 42.65759201 49.27716064 47.04808044 C56.64798612 54.41984278 64.01495313 61.7954443 71.37939453 69.17358398 C78.96332984 76.77161861 86.55077034 84.36613004 94.14208984 91.95678711 C94.84395096 92.65858829 94.84395096 92.65858829 95.55999109 93.37456728 C96.02707689 93.84161272 96.49416268 94.30865816 96.97540259 94.78985649 C105.17376624 102.98761093 113.36927425 111.18821363 121.56317902 119.39042473 C125.05683218 122.88761815 128.55134214 126.38395216 132.04650116 129.87964058 C136.15608133 133.9902214 140.26311543 138.10332922 144.3681469 142.21845245 C145.87985706 143.73309621 147.39242759 145.24688179 148.90589333 146.75977135 C150.96178057 148.81517183 153.01459093 150.87359483 155.06658936 152.93287659 C155.67473976 153.53947839 156.28289016 154.14608019 156.90946937 154.77106386 C161 158.88582128 161 158.88582128 161 160 C138.56 160 116.12 160 93 160 C92.01 158.02 91.02 156.04 90 154 C87.73668798 151.29869844 87.73668798 151.29869844 85.04560852 148.68484497 C84.54893541 148.18560859 84.0522623 147.6863722 83.54053849 147.17200744 C81.8847267 145.51127854 80.21846804 143.86145801 78.55200195 142.21142578 C77.35881182 141.01908237 76.16628289 139.82607698 74.97436523 138.63246155 C71.74372521 135.4009619 68.50392881 132.17878618 65.262398 128.95821619 C61.87376118 125.5883515 58.49363566 122.20997152 55.1125946 118.83248901 C48.71194285 112.44115612 42.30368319 106.05750818 35.89264888 99.67659175 C28.59296364 92.41045539 21.30180979 85.13578393 14.01135695 77.86038613 C-0.9829611 62.89741351 -15.98795053 47.94518159 -31 33 C-29.63441112 30.16625758 -28.35003769 28.10351562 -26.11083984 25.88378906 C-25.5303891 25.30348938 -24.94993835 24.7231897 -24.35189819 24.12530518 C-23.72788116 23.51161072 -23.10386414 22.89791626 -22.4609375 22.265625 C-21.82008209 21.62759949 -21.17922668 20.98957397 -20.51895142 20.33221436 C-18.47562179 18.30005931 -16.42544018 16.27497782 -14.375 14.25 C-12.9865214 12.8715547 -11.5984951 11.49265364 -10.2109375 10.11328125 C-6.81251303 6.73688106 -3.40792746 3.36680712 0 0 Z " fill="#F30000" transform="translate(51,96)"/>
<path d="M0 0 C15.18 0 30.36 0 46 0 C46 54.12 46 108.24 46 164 C30.82 164 15.64 164 0 164 C0 109.88 0 55.76 0 0 Z " fill="#F40000" transform="translate(450,92)"/>
<path d="M0 0 C14.85 0 29.7 0 45 0 C45 54.12 45 108.24 45 164 C30.15 164 15.3 164 0 164 C0 109.88 0 55.76 0 0 Z " fill="#FF3636" transform="translate(298,256)"/>
</svg>
